<svg id="Calque_1" data-name="Calque 1" xmlns="http://www.w3.org/2000/svg" viewBox="0 0 90 90"><defs><style>.cls-1{fill:#00883a;}.cls-2{fill:#fff;}</style></defs><rect id="Rectangle_146" data-name="Rectangle 146" class="cls-1" x="-0.06" width="90" height="90"/><path id="sigle" class="cls-2" d="M57.55,16.58A16.6,16.6,0,0,0,41.19,32.24,16.68,16.68,0,0,0,26.24,49V68.15h-8V66.53A12,12,0,0,1,22.78,57V51.27a16.81,16.81,0,0,0-9.5,15.26V73.1h17.9V49a11.76,11.76,0,0,1,10-11.78V73.1H59l0-24.1A16.77,16.77,0,0,0,46.12,32.55,11.45,11.45,0,1,1,69,33.41v4.11H74V33.41A16.64,16.64,0,0,0,57.55,16.58ZM54.1,49V68.15h-8V37.66A11.88,11.88,0,0,1,54.1,49Z"/></svg>