<?xml version="1.0" encoding="utf-8"?>
<!-- Generator: Adobe Illustrator 26.0.2, SVG Export Plug-In . SVG Version: 6.00 Build 0)  -->
<svg version="1.1" id="Calque_1" xmlns:bx="https://boxy-svg.com"
	 xmlns="http://www.w3.org/2000/svg" xmlns:xlink="http://www.w3.org/1999/xlink" x="0px" y="0px" viewBox="0 0 210 210"
	 style="enable-background:new 0 0 210 210;" xml:space="preserve">
<style type="text/css">
	.st0{fill:#00883A;}
</style>
<path id="sigle" class="st0" d="M151.9,9.7c-29.4,0.4-53.5,23.4-55.2,52.8C67.9,65.5,46,90,46.3,119v64.6h-27v-5.5
	c-0.1-12.5,5.5-24.4,15.3-32.1v-19.3c-19.7,9.5-32.2,29.6-32,51.5v22.2H63V119c-0.3-19.8,14.1-36.8,33.7-39.7v121h60.1V119
	c0.2-26.4-17.8-49.4-43.4-55.5c0.4-21.3,18-38.3,39.3-37.9c21.3,0.4,38.3,18,37.9,39.3c0,0.5,0,0.9-0.1,1.4v13.9h16.9V66.5
	C207.7,35.5,182.9,10.1,151.9,9.7C151.9,9.7,151.9,9.7,151.9,9.7z M140.3,119v64.6h-27V80.8C129.6,86.4,140.4,101.8,140.3,119z"/>
</svg>
